<?xml version="1.0" encoding="utf-8" ?>
<svg baseProfile="full" height="700px" version="1.1" width="1000px" xmlns="http://www.w3.org/2000/svg" xmlns:ev="http://www.w3.org/2001/xml-events" xmlns:xlink="http://www.w3.org/1999/xlink"><defs /><text fill="black" font-family="Arial" font-size="24px" text-anchor="middle" x="50%" y="40">SharePoint Online Solution Architecture</text><rect fill="#dce6f1" height="50" rx="10" ry="10" stroke="black" width="180" x="410" y="70" /><text fill="black" font-family="Arial" font-size="14px" text-anchor="middle" x="500.0" y="100.0">Hub Site</text><rect fill="#dce6f1" height="50" rx="10" ry="10" stroke="black" width="180" x="180" y="150" /><text fill="black" font-family="Arial" font-size="14px" text-anchor="middle" x="270.0" y="180.0">Communication Site</text><rect fill="#dce6f1" height="50" rx="10" ry="10" stroke="black" width="180" x="640" y="150" /><text fill="black" font-family="Arial" font-size="14px" text-anchor="middle" x="730.0" y="180.0">Team Site</text><polygon fill="#fdebd0" points="220,240.0 250.0,270 220,300.0 190.0,270" stroke="black" /><text fill="black" font-family="Arial" font-size="12px" text-anchor="middle" x="220" y="275">DLP</text><polygon fill="#fdebd0" points="680,240.0 710.0,270 680,300.0 650.0,270" stroke="black" /><text fill="black" font-family="Arial" font-size="12px" text-anchor="middle" x="680" y="275">Retention</text><rect fill="#dce6f1" height="50" rx="10" ry="10" stroke="black" width="180" x="410" y="420" /><text fill="black" font-family="Arial" font-size="14px" text-anchor="middle" x="500.0" y="450.0">Governance</text><rect fill="#dce6f1" height="50" rx="10" ry="10" stroke="black" width="180" x="820" y="200" /><text fill="black" font-family="Arial" font-size="14px" text-anchor="middle" x="910.0" y="230.0">PowerShell Scripts</text><rect fill="#dce6f1" height="50" rx="10" ry="10" stroke="black" width="180" x="820" y="280" /><text fill="black" font-family="Arial" font-size="14px" text-anchor="middle" x="910.0" y="310.0">Power Automate</text></svg>